<svg width="90" height="90" viewBox="0 0 90 90" xmlns="http://www.w3.org/2000/svg" ><path fill="#ffffff" d="M 89.3125 70.863281 L 78.75 40.929688 L 78.75 37.5 C 78.75 21.636719 67.746094 8.0625 52.398438 4.632812 C 51.925781 2.003906 49.636719 0 46.875 0 L 43.125 0 C 40.363281 0 38.074219 2.003906 37.601562 4.632812 C 22.253906 8.0625 11.25 21.636719 11.25 37.5 L 11.25 40.925781 L 0.6875 70.859375 C 0.234375 72.148438 0 73.492188 0 74.859375 C 0 80.515625 3.820312 85.328125 9.289062 86.566406 C 16.226562 88.132812 28.058594 90 45 90 C 61.941406 90 73.773438 88.132812 80.714844 86.570312 C 86.183594 85.332031 90 80.515625 90 74.859375 C 90 73.496094 89.765625 72.152344 89.3125 70.863281 Z M 52.5 8.488281 C 64.164062 11.484375 72.804688 21.136719 74.621094 32.886719 C 69.988281 29.203125 61.835938 28.050781 52.5 29.640625 Z M 41.25 5.625 C 41.25 4.589844 42.089844 3.75 43.125 3.75 L 46.875 3.75 C 47.910156 3.75 48.75 4.589844 48.75 5.625 L 48.75 30 C 48.75 31.035156 47.910156 31.875 46.875 31.875 L 43.125 31.875 C 42.089844 31.875 41.25 31.035156 41.25 30 Z M 37.5 8.488281 L 37.5 29.636719 C 28.167969 28.046875 20.015625 29.203125 15.375 32.886719 C 17.195312 21.136719 25.835938 11.484375 37.5 8.488281 Z M 79.890625 82.910156 C 73.132812 84.433594 61.597656 86.25 45 86.25 C 28.402344 86.25 16.867188 84.433594 10.113281 82.910156 C 6.367188 82.0625 3.75 78.753906 3.75 74.859375 C 3.75 73.921875 3.910156 72.996094 4.222656 72.113281 L 14.894531 41.875 C 14.960938 41.671875 15 41.464844 15 41.25 C 15 39.09375 15.890625 37.28125 17.648438 35.863281 C 21.695312 32.59375 29.847656 31.761719 38.921875 33.699219 C 39.953125 34.871094 41.445312 35.625 43.125 35.625 L 46.875 35.625 C 48.554688 35.625 50.046875 34.867188 51.078125 33.699219 C 60.152344 31.757812 68.300781 32.589844 72.351562 35.863281 C 74.109375 37.28125 75 39.09375 75 41.25 C 75 41.464844 75.035156 41.671875 75.105469 41.875 L 85.777344 72.113281 C 86.09375 72.996094 86.25 73.921875 86.25 74.859375 C 86.25 78.753906 83.636719 82.0625 79.890625 82.910156 Z M 54.710938 37.609375 C 53.203125 37.503906 51.644531 38.078125 50.519531 39.140625 C 49.394531 40.203125 48.75 41.695312 48.75 43.234375 L 48.75 49.628906 C 48.75 52.253906 50.53125 54.507812 53.085938 55.105469 C 55.300781 55.628906 58.625 56.25 61.875 56.25 C 64.65625 56.25 73.125 56.25 73.128906 48.746094 C 73.128906 44.976562 70.734375 38.515625 54.710938 37.609375 Z M 61.871094 52.5 C 58.980469 52.5 55.964844 51.933594 53.941406 51.457031 C 53.09375 51.257812 52.496094 50.507812 52.496094 49.632812 L 52.496094 43.238281 C 52.496094 42.71875 52.707031 42.234375 53.09375 41.871094 C 53.449219 41.53125 53.90625 41.351562 54.386719 41.351562 C 54.421875 41.351562 54.460938 41.351562 54.496094 41.355469 C 63.949219 41.890625 69.371094 44.585938 69.371094 48.75 C 69.371094 50.0625 69.371094 52.5 61.871094 52.5 Z M 70.214844 63.945312 C 69.289062 63.488281 68.167969 63.859375 67.699219 64.785156 L 64.207031 71.769531 C 63.496094 71.445312 62.707031 71.25 61.875 71.25 C 61.019531 71.25 60.222656 71.457031 59.492188 71.796875 L 52.238281 60.910156 L 50.570312 57.574219 C 50.289062 54.734375 47.914062 52.5 45 52.5 C 42.089844 52.5 39.714844 54.730469 39.429688 57.570312 L 37.746094 60.9375 L 30.507812 71.796875 C 29.78125 71.457031 28.980469 71.25 28.125 71.25 C 27.292969 71.25 26.503906 71.445312 25.792969 71.769531 L 22.300781 64.789062 C 21.835938 63.863281 20.714844 63.488281 19.785156 63.949219 C 18.859375 64.414062 18.480469 65.539062 18.945312 66.464844 L 22.695312 73.964844 C 22.789062 74.152344 22.957031 74.261719 23.101562 74.402344 C 22.730469 75.148438 22.5 75.984375 22.5 76.875 C 22.5 79.976562 25.023438 82.5 28.125 82.5 C 30.566406 82.5 32.628906 80.929688 33.40625 78.75 L 56.59375 78.75 C 57.371094 80.929688 59.433594 82.5 61.875 82.5 C 64.976562 82.5 67.5 79.976562 67.5 76.875 C 67.5 75.984375 67.269531 75.148438 66.898438 74.398438 C 67.042969 74.261719 67.207031 74.148438 67.304688 73.960938 L 71.054688 66.460938 C 71.515625 65.535156 71.140625 64.410156 70.214844 63.945312 Z M 28.125 78.75 C 27.089844 78.75 26.25 77.910156 26.25 76.875 C 26.25 75.839844 27.089844 75 28.125 75 C 29.160156 75 30 75.839844 30 76.875 C 30 77.910156 29.160156 78.75 28.125 78.75 Z M 37.5 75 L 33.40625 75 C 33.332031 74.804688 33.257812 74.613281 33.167969 74.429688 C 33.257812 74.339844 33.363281 74.273438 33.433594 74.164062 L 37.5 68.066406 Z M 45 56.25 C 46.035156 56.25 46.875 57.089844 46.875 58.125 C 46.875 59.160156 46.035156 60 45 60 C 43.964844 60 43.125 59.160156 43.125 58.125 C 43.125 57.089844 43.964844 56.25 45 56.25 Z M 48.75 75 L 41.25 75 L 41.25 62.320312 L 41.261719 62.296875 C 42.257812 63.191406 43.558594 63.75 45 63.75 C 46.441406 63.75 47.742188 63.191406 48.734375 62.296875 L 48.75 62.324219 Z M 56.59375 75 L 52.5 75 L 52.5 68.0625 L 56.566406 74.160156 C 56.636719 74.269531 56.746094 74.339844 56.835938 74.429688 C 56.746094 74.613281 56.667969 74.804688 56.59375 75 Z M 61.875 78.75 C 60.839844 78.75 60 77.910156 60 76.875 C 60 75.839844 60.839844 75 61.875 75 C 62.910156 75 63.75 75.839844 63.75 76.875 C 63.75 77.910156 62.910156 78.75 61.875 78.75 Z M 36.914062 55.109375 C 39.46875 54.511719 41.253906 52.257812 41.253906 49.632812 L 41.253906 43.238281 C 41.253906 41.699219 40.609375 40.207031 39.484375 39.144531 C 38.355469 38.082031 36.839844 37.515625 35.292969 37.613281 C 19.265625 38.519531 16.875 44.980469 16.875 48.75 C 16.875 56.25 25.34375 56.25 28.125 56.25 C 31.375 56.25 34.699219 55.628906 36.914062 55.109375 Z M 20.628906 48.746094 C 20.628906 44.582031 26.050781 41.890625 35.503906 41.351562 L 35.613281 41.351562 C 36.09375 41.351562 36.546875 41.535156 36.90625 41.867188 C 37.292969 42.234375 37.503906 42.714844 37.503906 43.234375 L 37.503906 49.628906 C 37.503906 50.503906 36.90625 51.253906 36.054688 51.453125 C 34.035156 51.929688 31.019531 52.496094 28.128906 52.496094 C 20.628906 52.496094 20.628906 50.058594 20.628906 48.746094 Z M 20.628906 48.746094 "/></svg>